<svg xmlns="http://www.w3.org/2000/svg" viewBox="0 0 30.12 29.35"><defs><style>.cls-1{fill:#57c2e2;}</style></defs><title>mypage_icon</title><g id="レイヤー_2" data-name="レイヤー 2"><g id="ボタン"><path class="cls-1" d="M29.45,13.14,17.18.88a3,3,0,0,0-4.24,0L.67,13.14c-1.17,1.17-.77,2.12.88,2.12H5.32a2.94,2.94,0,0,0-.11.75V26.35a3,3,0,0,0,3,3h1a3,3,0,0,0,3-3V24.18a2.88,2.88,0,1,1,5.75,0v2.17a3,3,0,0,0,3,3h1a3,3,0,0,0,3-3V16a2.93,2.93,0,0,0-.11-.75h3.77C30.22,15.26,30.62,14.31,29.45,13.14Z"/></g></g></svg>